<svg width="103" height="10" viewBox="0 0 103 10" fill="none" xmlns="http://www.w3.org/2000/svg">
<path d="M0 9.73541V0.246246H7.58361V2.51931H3.05035V3.77987H6.88166V5.9629H3.05035V7.43111H7.77104V9.73541H0Z" fill="#31287C"/>
<path d="M9.19513 9.73541V0.246246H12.8813C13.8148 0.246246 14.513 0.286673 14.9687 0.369363C15.4281 0.452053 15.8269 0.595383 16.165 0.784651C16.8228 1.17238 17.3171 1.71629 17.6461 2.41457C17.9768 3.11284 18.1422 3.97466 18.1422 4.99634C18.1422 6.07131 17.9401 6.97539 17.5266 7.70858C17.1205 8.43993 16.5105 8.98384 15.7148 9.34033C15.4061 9.48366 15.0184 9.58105 14.5516 9.64169C14.0849 9.70417 13.3388 9.73357 12.3135 9.73357H9.19513V9.73541ZM12.2418 7.33188H13.0669C13.8239 7.33188 14.3476 7.16282 14.6472 6.82104C14.9412 6.48292 15.0863 5.87469 15.0863 4.99634C15.0863 4.14004 14.9357 3.53548 14.6361 3.17899C14.3366 2.82251 13.8258 2.64794 13.1055 2.64794H12.2436V7.33188H12.2418Z" fill="#31287C"/>
<path d="M19.5939 9.73541V0.246246H22.7012V9.73541H19.5939Z" fill="#31287C"/>
<path d="M27.5616 9.73541V6.22199L24.0666 0.246246H27.4458L29.0813 3.47851L30.7314 0.246246H34.0169L30.6064 6.22199V9.73541H27.5616Z" fill="#31287C"/>
<path d="M32.5598 9.73541L35.8986 0.246246H38.9839L42.3209 9.73541H39.2981L38.9453 8.47851H35.9244L35.555 9.73541H32.5598ZM36.4775 6.4866H38.3922L37.444 3.20288L36.4775 6.4866Z" fill="#31287C"/>
<path d="M53.6917 6.05843H56.5767C56.494 7.30797 56.053 8.28188 55.2555 8.96912C54.458 9.65637 53.3867 9.99999 52.0269 9.99999C50.5054 9.99999 49.3128 9.55898 48.4399 8.66776C47.5653 7.77471 47.1298 6.55273 47.1298 4.99999C47.1298 3.45644 47.5653 2.23263 48.4271 1.34141C49.2871 0.446521 50.4668 0.00183105 51.9552 0.00183105C53.3297 0.00183105 54.4102 0.332592 55.2003 0.994113C55.9887 1.65931 56.4315 2.60933 56.5252 3.84417H53.6035C53.5612 3.35722 53.4032 2.9897 53.1294 2.7398C52.863 2.4954 52.4771 2.37412 51.9901 2.37412C51.3966 2.37412 50.9464 2.59279 50.6469 3.02645C50.3473 3.46196 50.2022 4.12164 50.2022 5.00183C50.2022 5.86732 50.3639 6.52149 50.6781 6.96251C50.9978 7.40536 51.4646 7.6277 52.0765 7.6277C52.5524 7.6277 52.9236 7.49356 53.2029 7.21793C53.4804 6.94781 53.6458 6.56192 53.6917 6.05843Z" fill="#31287C"/>
<path d="M57.4531 4.99816C57.4531 3.45461 57.8905 2.2308 58.7743 1.33958C59.6619 0.44469 60.8636 0 62.3888 0C63.9103 0 65.1102 0.44469 65.9923 1.33958C66.8761 2.2308 67.3116 3.45461 67.3116 4.99816C67.3116 6.54171 66.8761 7.76185 65.9923 8.65674C65.1102 9.55164 63.9103 9.99816 62.3888 9.99816C60.8636 9.99816 59.6619 9.55164 58.7743 8.65674C57.8905 7.76369 57.4531 6.54171 57.4531 4.99816ZM60.5292 4.99816C60.5292 5.89489 60.678 6.55641 60.9776 6.97722C61.2789 7.39802 61.7493 7.6075 62.387 7.6075C63.0246 7.6075 63.4932 7.39802 63.789 6.97905C64.083 6.56193 64.2319 5.9004 64.2319 4.99816C64.2319 4.09408 64.0849 3.43072 63.789 3.00992C63.4932 2.59647 63.0246 2.38515 62.387 2.38515C61.7493 2.38515 61.2771 2.59647 60.9776 3.01727C60.678 3.43807 60.5292 4.09776 60.5292 4.99816Z" fill="#31287C"/>
<path d="M68.7027 9.73541V0.246246H75.882V2.63507H71.753V4.10512H75.0368V6.3984H71.753V9.73724H68.7027V9.73541Z" fill="#31287C"/>
<path d="M77.0452 9.73541V0.246246H84.2227V2.63507H80.09V4.10512H83.3793V6.3984H80.09V9.73724H77.0452V9.73541Z" fill="#31287C"/>
<path d="M85.3804 9.73541V0.246246H92.9676V2.51931H88.427V3.77987H92.2639V5.9629H88.427V7.43111H93.1514V9.73541H85.3804Z" fill="#31287C"/>
<path d="M94.5756 9.73541V0.246246H102.163V2.51931H97.6259V3.77987H101.466V5.9629H97.6259V7.43111H102.348V9.73541H94.5756Z" fill="#31287C"/>
</svg>
